<mxfile host="app.diagrams.net" modified="2024-01-30T09:03:56.616Z" agent="Mozilla/5.0 (X11; Linux x86_64; rv:109.0) Gecko/20100101 Firefox/115.0" etag="BBIXQhdG14aoIDro4Q_V" version="23.0.2" type="device">
  <diagram id="C5RBs43oDa-KdzZeNtuy" name="Page-1">
    <mxGraphModel dx="1450" dy="592" grid="1" gridSize="10" guides="1" tooltips="1" connect="1" arrows="1" fold="1" page="0" pageScale="1" pageWidth="827" pageHeight="1169" math="0" shadow="0">
      <root>
        <mxCell id="WIyWlLk6GJQsqaUBKTNV-0" />
        <mxCell id="WIyWlLk6GJQsqaUBKTNV-1" parent="WIyWlLk6GJQsqaUBKTNV-0" />
        <mxCell id="fSpcb35OHQWa-y0Q_ced-8" value="" style="rounded=0;whiteSpace=wrap;html=1;" vertex="1" parent="WIyWlLk6GJQsqaUBKTNV-1">
          <mxGeometry x="-230" y="50" width="320" height="510" as="geometry" />
        </mxCell>
        <mxCell id="Mv94CE7Lw6xpqbTLwSsB-13" value="" style="rounded=0;whiteSpace=wrap;html=1;strokeColor=none;" parent="WIyWlLk6GJQsqaUBKTNV-1" vertex="1">
          <mxGeometry x="90" y="50" width="670" height="510" as="geometry" />
        </mxCell>
        <mxCell id="fDoWqqoHtU6u6N5VrsDu-0" value="" style="rounded=0;whiteSpace=wrap;html=1;fontFamily=Verdana;fontSize=24;align=center;movable=1;resizable=1;rotatable=1;deletable=1;editable=1;locked=0;connectable=1;" parent="WIyWlLk6GJQsqaUBKTNV-1" vertex="1">
          <mxGeometry x="90" y="50" width="669" height="510" as="geometry" />
        </mxCell>
        <mxCell id="fDoWqqoHtU6u6N5VrsDu-2" value="Host" style="rounded=0;whiteSpace=wrap;html=1;strokeColor=none;fontFamily=Helvetica;fontSize=24;" parent="WIyWlLk6GJQsqaUBKTNV-1" vertex="1">
          <mxGeometry x="364" y="60" width="100" height="50" as="geometry" />
        </mxCell>
        <mxCell id="fDoWqqoHtU6u6N5VrsDu-3" value="Apache" style="rounded=0;whiteSpace=wrap;html=1;fontFamily=Helvetica;fontSize=24;fillColor=#f8cecc;strokeColor=#b85450;" parent="WIyWlLk6GJQsqaUBKTNV-1" vertex="1">
          <mxGeometry x="140" y="180" width="120" height="100" as="geometry" />
        </mxCell>
        <mxCell id="fDoWqqoHtU6u6N5VrsDu-4" value="MySQL" style="rounded=0;whiteSpace=wrap;html=1;fontSize=24;fillColor=#dae8fc;strokeColor=#6c8ebf;" parent="WIyWlLk6GJQsqaUBKTNV-1" vertex="1">
          <mxGeometry x="540" y="170" width="120" height="60" as="geometry" />
        </mxCell>
        <mxCell id="fDoWqqoHtU6u6N5VrsDu-5" value="&lt;font style=&quot;font-size: 22px;&quot;&gt;OpenLDAP&lt;/font&gt;" style="rounded=0;whiteSpace=wrap;html=1;fontSize=24;fillColor=#ffe6cc;strokeColor=#d79b00;" parent="WIyWlLk6GJQsqaUBKTNV-1" vertex="1">
          <mxGeometry x="540" y="380" width="120" height="60" as="geometry" />
        </mxCell>
        <mxCell id="fDoWqqoHtU6u6N5VrsDu-6" value="&lt;font style=&quot;font-size: 17px;&quot;&gt;LAM&lt;/font&gt;" style="rounded=0;whiteSpace=wrap;html=1;fillColor=#fff2cc;strokeColor=#d6b656;" parent="WIyWlLk6GJQsqaUBKTNV-1" vertex="1">
          <mxGeometry x="370" y="180" width="40" height="40" as="geometry" />
        </mxCell>
        <mxCell id="fDoWqqoHtU6u6N5VrsDu-7" value="&lt;font style=&quot;font-size: 18px;&quot;&gt;WP&lt;/font&gt;" style="rounded=0;whiteSpace=wrap;html=1;fillColor=#fff2cc;strokeColor=#d6b656;" parent="WIyWlLk6GJQsqaUBKTNV-1" vertex="1">
          <mxGeometry x="324" y="240" width="40" height="40" as="geometry" />
        </mxCell>
        <mxCell id="fSpcb35OHQWa-y0Q_ced-4" style="edgeStyle=orthogonalEdgeStyle;rounded=0;orthogonalLoop=1;jettySize=auto;html=1;exitX=0.5;exitY=0;exitDx=0;exitDy=0;entryX=0.992;entryY=0.617;entryDx=0;entryDy=0;entryPerimeter=0;fillColor=#f8cecc;strokeColor=#b85450;movable=0;resizable=0;rotatable=0;deletable=0;editable=0;locked=1;connectable=0;" edge="1" parent="WIyWlLk6GJQsqaUBKTNV-1" source="fDoWqqoHtU6u6N5VrsDu-8" target="fDoWqqoHtU6u6N5VrsDu-4">
          <mxGeometry relative="1" as="geometry">
            <mxPoint x="710" y="120" as="targetPoint" />
            <Array as="points">
              <mxPoint x="-95" y="130" />
              <mxPoint x="680" y="130" />
              <mxPoint x="680" y="207" />
            </Array>
          </mxGeometry>
        </mxCell>
        <mxCell id="fDoWqqoHtU6u6N5VrsDu-8" value="&lt;font style=&quot;font-size: 28px;&quot;&gt;Internet&lt;/font&gt;" style="ellipse;whiteSpace=wrap;html=1;fillColor=#d5e8d4;strokeColor=#82b366;" parent="WIyWlLk6GJQsqaUBKTNV-1" vertex="1">
          <mxGeometry x="-190" y="160" width="190" height="140" as="geometry" />
        </mxCell>
        <mxCell id="fDoWqqoHtU6u6N5VrsDu-9" value="" style="strokeWidth=2;html=1;shape=mxgraph.flowchart.annotation_2;align=left;labelPosition=right;pointerEvents=1;" parent="WIyWlLk6GJQsqaUBKTNV-1" vertex="1">
          <mxGeometry x="260" y="200" width="64" height="60" as="geometry" />
        </mxCell>
        <mxCell id="fDoWqqoHtU6u6N5VrsDu-10" value="&lt;b&gt;&lt;font style=&quot;font-size: 15px;&quot;&gt;p:389&lt;/font&gt;&lt;/b&gt;" style="endArrow=classic;html=1;rounded=0;fillColor=#ffe6cc;strokeColor=#d79b00;" parent="WIyWlLk6GJQsqaUBKTNV-1" source="fDoWqqoHtU6u6N5VrsDu-7" target="fDoWqqoHtU6u6N5VrsDu-5" edge="1">
          <mxGeometry x="0.816" y="20" width="50" height="50" relative="1" as="geometry">
            <mxPoint x="460" y="450" as="sourcePoint" />
            <mxPoint x="510" y="400" as="targetPoint" />
            <Array as="points">
              <mxPoint x="344" y="410" />
            </Array>
            <mxPoint as="offset" />
          </mxGeometry>
        </mxCell>
        <mxCell id="fDoWqqoHtU6u6N5VrsDu-12" value="&lt;b&gt;&lt;font style=&quot;font-size: 15px;&quot;&gt;p:3306&lt;/font&gt;&lt;/b&gt;" style="endArrow=classic;html=1;rounded=0;fillColor=#dae8fc;strokeColor=#6c8ebf;" parent="WIyWlLk6GJQsqaUBKTNV-1" source="fDoWqqoHtU6u6N5VrsDu-6" target="fDoWqqoHtU6u6N5VrsDu-4" edge="1">
          <mxGeometry x="0.5385" y="20" width="50" height="50" relative="1" as="geometry">
            <mxPoint x="460" y="450" as="sourcePoint" />
            <mxPoint x="510" y="400" as="targetPoint" />
            <mxPoint as="offset" />
          </mxGeometry>
        </mxCell>
        <mxCell id="fDoWqqoHtU6u6N5VrsDu-13" value="&lt;b&gt;&lt;font style=&quot;font-size: 15px;&quot;&gt;p:80/443&lt;/font&gt;&lt;/b&gt;" style="endArrow=classic;html=1;rounded=0;movable=0;resizable=0;rotatable=0;deletable=0;editable=0;locked=1;connectable=0;" parent="WIyWlLk6GJQsqaUBKTNV-1" source="fDoWqqoHtU6u6N5VrsDu-8" target="fDoWqqoHtU6u6N5VrsDu-3" edge="1">
          <mxGeometry x="0.2222" y="40" width="50" height="50" relative="1" as="geometry">
            <mxPoint x="460" y="450" as="sourcePoint" />
            <mxPoint x="510" y="400" as="targetPoint" />
            <mxPoint as="offset" />
          </mxGeometry>
        </mxCell>
        <mxCell id="fDoWqqoHtU6u6N5VrsDu-15" value="" style="line;strokeWidth=2;html=1;" parent="WIyWlLk6GJQsqaUBKTNV-1" vertex="1">
          <mxGeometry x="314" y="195" width="56" height="10" as="geometry" />
        </mxCell>
        <mxCell id="fDoWqqoHtU6u6N5VrsDu-17" value="" style="endArrow=none;html=1;rounded=0;entryX=0.5;entryY=1;entryDx=0;entryDy=0;fillColor=#ffe6cc;strokeColor=#d79b00;" parent="WIyWlLk6GJQsqaUBKTNV-1" target="fDoWqqoHtU6u6N5VrsDu-6" edge="1">
          <mxGeometry width="50" height="50" relative="1" as="geometry">
            <mxPoint x="390" y="410" as="sourcePoint" />
            <mxPoint x="510" y="400" as="targetPoint" />
          </mxGeometry>
        </mxCell>
        <mxCell id="fDoWqqoHtU6u6N5VrsDu-18" value="" style="endArrow=none;html=1;rounded=0;entryX=1;entryY=0.5;entryDx=0;entryDy=0;fillColor=#dae8fc;strokeColor=#6c8ebf;" parent="WIyWlLk6GJQsqaUBKTNV-1" target="fDoWqqoHtU6u6N5VrsDu-7" edge="1">
          <mxGeometry width="50" height="50" relative="1" as="geometry">
            <mxPoint x="470" y="200" as="sourcePoint" />
            <mxPoint x="510" y="400" as="targetPoint" />
            <Array as="points">
              <mxPoint x="470" y="260" />
            </Array>
          </mxGeometry>
        </mxCell>
        <mxCell id="0" value="&lt;font style=&quot;font-size: 18px;&quot;&gt;OpenSSH&lt;/font&gt;" style="rounded=0;whiteSpace=wrap;html=1;fillColor=#e1d5e7;strokeColor=#9673a6;" parent="WIyWlLk6GJQsqaUBKTNV-1" vertex="1">
          <mxGeometry x="130" y="410" width="120" height="60" as="geometry" />
        </mxCell>
        <mxCell id="1" value="" style="endArrow=classic;html=1;fontSize=18;movable=0;resizable=0;rotatable=0;deletable=0;editable=0;locked=1;connectable=0;entryX=0;entryY=0;entryDx=0;entryDy=0;" parent="WIyWlLk6GJQsqaUBKTNV-1" source="fDoWqqoHtU6u6N5VrsDu-8" target="0" edge="1">
          <mxGeometry width="50" height="50" relative="1" as="geometry">
            <mxPoint x="410" y="450" as="sourcePoint" />
            <mxPoint x="230" y="470" as="targetPoint" />
          </mxGeometry>
        </mxCell>
        <mxCell id="2" value="&lt;font style=&quot;font-size: 18px;&quot;&gt;p:50&lt;/font&gt;" style="text;strokeColor=none;fillColor=none;html=1;fontSize=24;fontStyle=1;verticalAlign=middle;align=center;" parent="WIyWlLk6GJQsqaUBKTNV-1" vertex="1">
          <mxGeometry x="264" y="510" width="100" height="40" as="geometry" />
        </mxCell>
        <mxCell id="S-flAT2JwPQkxxqyN5gs-2" value="&lt;font style=&quot;font-size: 18px;&quot;&gt;PLA&lt;/font&gt;" style="rounded=0;whiteSpace=wrap;html=1;fillColor=#fff2cc;strokeColor=#d6b656;" parent="WIyWlLk6GJQsqaUBKTNV-1" vertex="1">
          <mxGeometry x="272" y="300" width="40" height="40" as="geometry" />
        </mxCell>
        <mxCell id="S-flAT2JwPQkxxqyN5gs-5" value="" style="line;strokeWidth=2;direction=south;html=1;" parent="WIyWlLk6GJQsqaUBKTNV-1" vertex="1">
          <mxGeometry x="287" y="240" width="10" height="60" as="geometry" />
        </mxCell>
        <mxCell id="S-flAT2JwPQkxxqyN5gs-6" value="" style="endArrow=none;html=1;rounded=0;entryX=1;entryY=0.5;entryDx=0;entryDy=0;fillColor=#fff2cc;strokeColor=#d6b656;" parent="WIyWlLk6GJQsqaUBKTNV-1" target="S-flAT2JwPQkxxqyN5gs-2" edge="1">
          <mxGeometry width="50" height="50" relative="1" as="geometry">
            <mxPoint x="340" y="320" as="sourcePoint" />
            <mxPoint x="440" y="360" as="targetPoint" />
          </mxGeometry>
        </mxCell>
        <mxCell id="Mv94CE7Lw6xpqbTLwSsB-4" value="" style="verticalLabelPosition=bottom;verticalAlign=top;html=1;shape=mxgraph.basic.x;fillColor=#e51400;fontColor=#ffffff;strokeColor=#B20000;" parent="WIyWlLk6GJQsqaUBKTNV-1" vertex="1">
          <mxGeometry y="110" width="40" height="40" as="geometry" />
        </mxCell>
        <mxCell id="Mv94CE7Lw6xpqbTLwSsB-5" value="" style="verticalLabelPosition=bottom;verticalAlign=top;html=1;shape=mxgraph.basic.tick;fillColor=#008a00;strokeColor=#005700;fontColor=#ffffff;" parent="WIyWlLk6GJQsqaUBKTNV-1" vertex="1">
          <mxGeometry x="40" y="210" width="40" height="40" as="geometry" />
        </mxCell>
        <mxCell id="fSpcb35OHQWa-y0Q_ced-6" value="" style="endArrow=classic;html=1;rounded=0;entryX=1;entryY=0.5;entryDx=0;entryDy=0;fillColor=#f8cecc;strokeColor=#b85450;movable=0;resizable=0;rotatable=0;deletable=0;editable=0;locked=1;connectable=0;" edge="1" parent="WIyWlLk6GJQsqaUBKTNV-1" target="fDoWqqoHtU6u6N5VrsDu-5">
          <mxGeometry width="50" height="50" relative="1" as="geometry">
            <mxPoint x="680" y="210" as="sourcePoint" />
            <mxPoint x="680" y="420" as="targetPoint" />
            <Array as="points">
              <mxPoint x="680" y="310" />
              <mxPoint x="680" y="410" />
            </Array>
          </mxGeometry>
        </mxCell>
        <mxCell id="fSpcb35OHQWa-y0Q_ced-9" value="" style="verticalLabelPosition=bottom;verticalAlign=top;html=1;shape=mxgraph.basic.tick;fillColor=#008a00;strokeColor=#005700;fontColor=#ffffff;" vertex="1" parent="WIyWlLk6GJQsqaUBKTNV-1">
          <mxGeometry x="20" y="320" width="40" height="40" as="geometry" />
        </mxCell>
      </root>
    </mxGraphModel>
  </diagram>
</mxfile>
